HIERARCHY
ROOT Hips
{
  OFFSET 279.157 85.6768 304.565
  CHANNELS 6 Xposition Yposition Zposition Zrotation Xrotation Yrotation
  JOINT LeftUpLeg
  {
    OFFSET 8.64259 1.95398 -2.38835
    CHANNELS 3 Zrotation Xrotation Yrotation
    JOINT LeftLeg
    {
      OFFSET 43.7702 0 0
      CHANNELS 3 Zrotation Xrotation Yrotation
      JOINT LeftFoot
      {
        OFFSET 40.6238 0 0
        CHANNELS 3 Zrotation Xrotation Yrotation
        JOINT LeftToeBase
        {
          OFFSET 12.7242 0 0
          CHANNELS 3 Zrotation Xrotation Yrotation
          End Site
          {
            OFFSET 0 0 0
          }
        }
      }
    }
  }
  JOINT RightUpLeg
  {
    OFFSET -8.2249 1.95398 -2.59336
    CHANNELS 3 Zrotation Xrotation Yrotation
    JOINT RightLeg
    {
      OFFSET 43.5653 0 0
      CHANNELS 3 Zrotation Xrotation Yrotation
      JOINT RightFoot
      {
        OFFSET 40.6238 0 0
        CHANNELS 3 Zrotation Xrotation Yrotation
        JOINT RightToeBase
        {
          OFFSET 12.7242 0 0
          CHANNELS 3 Zrotation Xrotation Yrotation
          End Site
          {
            OFFSET 0 0 0
          }
        }
      }
    }
  }
  JOINT Spine
  {
    OFFSET 0.165834 0.87714 6.61349
    CHANNELS 3 Zrotation Xrotation Yrotation
    JOINT Spine1
    {
      OFFSET 7.38963 1.71661e-005 0
      CHANNELS 3 Zrotation Xrotation Yrotation
      JOINT Spine2
      {
        OFFSET 11.9445 1.14441e-005 0
        CHANNELS 3 Zrotation Xrotation Yrotation
        JOINT Spine3
        {
          OFFSET 14.7254 4.19617e-005 0
          CHANNELS 3 Zrotation Xrotation Yrotation
          JOINT Spine4
          {
            OFFSET 10.9679 0 0
            CHANNELS 3 Zrotation Xrotation Yrotation
            JOINT RightShoulder
            {
              OFFSET 2.46616 -1.6653 3.69651
              CHANNELS 3 Zrotation Xrotation Yrotation
              JOINT RightArm
              {
                OFFSET 13.0012 0 0
                CHANNELS 3 Zrotation Xrotation Yrotation
                JOINT RightForeArm
                {
                  OFFSET 28.7848 1.52588e-005 0
                  CHANNELS 3 Zrotation Xrotation Yrotation
                  JOINT RightHand
                  {
                    OFFSET 26.5688 1.52588e-005 0
                    CHANNELS 3 Zrotation Xrotation Yrotation
                    End Site
                    {
                      OFFSET 0 0 0
                    }
                  }
                }
              }
            }
            JOINT LeftShoulder
            {
              OFFSET 2.38034 -1.29275 -3.7523
              CHANNELS 3 Zrotation Xrotation Yrotation
              JOINT LeftArm
              {
                OFFSET 16.3182 6.10351e-005 0
                CHANNELS 3 Zrotation Xrotation Yrotation
                JOINT LeftForeArm
                {
                  OFFSET 27.0901 0 0
                  CHANNELS 3 Zrotation Xrotation Yrotation
                  JOINT LeftHand
                  {
                    OFFSET 24.5451 1.52588e-005 0
                    CHANNELS 3 Zrotation Xrotation Yrotation
                    End Site
                    {
                      OFFSET 0 0 0
                    }
                  }
                }
              }
            }
            JOINT Neck
            {
              OFFSET 5.0226 -0.0266342 0
              CHANNELS 3 Zrotation Xrotation Yrotation
              JOINT Head
              {
                OFFSET 6.69364 2.86102e-005 0
                CHANNELS 3 Zrotation Xrotation Yrotation
                End Site
                {
                  OFFSET 0 0 0
                }
              }
            }
          }
        }
      }
    }
  }
}
MOTION
Frames:	10
Frame Time:	0.0416667
14.8814 92.9577 -258.969 79.0922 -40.3466 84.533 -167.013 -5.3772 117.229 -10.6989 59.9932 4.54997 83.2995 15.2763 -3.57986 39.5354 5.06063 5.12531 151.795 17.2 95.7948 -78.917 7.9995 17.1231 90.0235 -11.255 -2.77247 17.2583 1.94237 8.66089 -5.83203 8.56053 -91.9314 9.62033 -12.4979 -2.86498 -1.99143 -12.6117 -2.30372 -24.9043 -11.054 -6.52807 -4.89171 -11.054 -6.52807 95.2881 -15.8128 -100.25 56.9006 -7.4995 42.8663 -27.5796 -30.4513 -51.878 -22.7231 0.234821 -20.5857 -85.99 -29.4259 80.8772 0.917143 4.68951 -48.4961 40.186 -0.550514 -84.6435 18.2008 -1.08258 -9.83212 42.821 1.75148 -8.64167 -20.5985 6.09271 0.727269 
15.4682 95.9027 -253.548 74.3363 -46.4097 81.6034 -164.175 -4.93016 116.047 -12.198 62.325 5.18454 65.6918 6.67124 4.9665 53.0782 12.5986 3.78456 154.623 28.5629 93.779 -71.2533 5.20962 14.5713 90.7685 -11.585 -2.20829 16.8121 2.43796 7.10107 -5.77551 8.2939 -92.1781 10.1326 -12.5002 -3.27636 -1.48 -12.632 -2.71476 -24.3775 -10.9334 -6.91833 -4.36488 -10.9333 -6.91833 94.5422 -14.0819 -102.928 57.3292 -9.27507 47.9441 -25.5655 -27.8598 -51.3003 -24.6198 0.929253 -22.2116 -84.4455 -24.7124 82.8895 0.35484 1.29059 -46.8358 39.0883 -2.3493 -86.3419 16.7255 -1.44052 -12.3623 43.134 5.51728 -7.4204 -21.9994 8.93428 1.09008 
15.6726 97.722 -247.548 68.3007 -56.0189 76.6442 -162.276 -7.64417 113.42 -13.2816 55.6602 6.26364 51.795 -3.68525 4.19471 42.2522 7.20991 -2.16209 160.876 36.6495 92.9892 -58.9418 1.67607 11.9823 85.3812 -9.93347 -2.11672 19.2345 1.53053 8.1171 -5.26805 8.13003 -92.4161 10.4406 -11.6004 -3.77997 -1.18187 -11.7553 -3.25951 -24.0004 -9.92608 -7.11616 -3.98772 -9.92608 -7.11616 93.2561 -11.7344 -107.597 56.1766 -8.95394 50.9057 -24.5441 -27.071 -51.7756 -21.1837 0.76425 -23.7451 -84.267 -24.4599 83.208 1.29431 0.226156 -42.6385 38.7494 -3.95957 -88.1107 15.3893 -1.32819 -12.2963 43.4486 10.1199 -3.56403 -23.2666 11.4929 -0.346889 
15.8305 97.8267 -241.01 54.4602 -67.0307 64.2729 -164.069 -14.3507 109.376 -9.83241 38.4153 4.57109 46.5766 -5.45081 0.236393 14.8862 -7.79722 0.284145 166.948 41.7844 95.1219 -44.7148 -5.09908 9.45563 81.3098 -9.919 -1.68601 19.7191 1.49548 7.65746 -4.21699 8.01861 -92.5645 10.6615 -9.57745 -4.22892 -0.979451 -9.75409 -3.80029 -23.6663 -7.86476 -6.92033 -3.65365 -7.86476 -6.92034 92.0633 -12.7749 -110.234 52.5672 -10.3135 50.8802 -22.6178 -25.2441 -50.6591 -18.2476 0.83019 -26.3805 -84.9267 -25.9457 82.1812 3.2757 1.59346 -40.1744 37.8255 -5.17044 -88.488 13.84 -1.21592 -12.2439 42.5843 12.6217 -2.31976 -22.7391 13.1409 -0.129949 
15.7905 96.5236 -234.567 24.6453 -76.5722 33.8611 -170.237 -14.9025 99.388 -25.541 24.393 4.08655 50.5637 -3.25831 2.85678 20.6739 -3.60702 -2.4306 171.135 44.2495 98.1988 -36.1126 -12.7502 7.04816 78.0534 -9.79006 -1.70306 20.9093 1.29584 7.01667 -3.02805 8.09247 -92.3561 10.5564 -7.11292 -4.04606 -1.10032 -7.28395 -3.72815 -23.6901 -5.5698 -5.99759 -3.67745 -5.56978 -5.99758 90.9762 -16.708 -110.74 45.6079 -11.2941 45.9452 -20.8832 -27.2506 -48.9503 -18.8624 0.877337 -26.2773 -85.7765 -30.2607 81.4899 6.02727 4.73295 -38.998 39.7261 -5.96066 -88.9005 14.203 -1.10431 -11.3213 43.2333 13.7448 -2.48927 -22.7692 14.141 0.656464 
15.6835 94.7066 -227.772 -23.8824 -79.4351 -17.1334 -171.712 -9.32106 91.0404 -46.0932 19.2587 1.28311 52.4149 -4.04574 2.50076 23.283 -1.13393 -6.42151 173.495 43.4939 99.927 -35.396 -13.1395 4.95581 75.0798 -8.12189 -1.02265 24.2601 0.816243 4.26601 -1.9788 8.21545 -91.7675 10.3728 -4.7511 -3.09693 -1.29263 -4.88274 -2.88462 -23.8427 -3.60149 -4.38136 -3.83007 -3.60149 -4.38138 89.9817 -21.8617 -110.339 38.6721 -7.99528 38.9962 -23.6885 -33.1277 -48.7763 -22.6108 0.630964 -23.3093 -87.7088 -34.6383 78.9409 7.1746 9.06692 -37.3494 41.3354 -4.59201 -86.7282 15.7251 -1.29647 -11.9348 42.205 13.2338 -2.68056 -21.4421 13.7609 0.629673 
15.5296 93.1947 -220.15 -53.3151 -78.0159 -47.1796 -168.084 -2.05835 89.2492 -63.2517 16.145 -1.1229 51.2926 -5.34027 2.02419 25.463 -0.0527735 -6.68158 174.512 42.1911 100.886 -41.209 -14.8022 3.81901 68.6443 -4.37364 -2.38905 19.5278 2.36915 3.39812 -1.14224 8.26271 -91.3565 10.3097 -2.8959 -2.44472 -1.36014 -3.00066 -2.31489 -23.891 -2.02771 -3.20166 -3.87839 -2.02771 -3.20166 89.5297 -26.514 -109.178 34.1753 -1.10565 32.0735 -27.7161 -36.4715 -50.8393 -24.3081 0.0179985 -19.6775 -89.2193 -37.5571 77.0452 5.45155 14.4415 -36.4367 44.28 -0.421592 -82.7562 15.3444 -1.54605 -13.6963 37.1159 11.397 -2.92845 -18.1832 11.9336 1.63136 
15.1143 91.7166 -212.138 -61.8658 -77.7367 -53.6447 -164.259 8.30104 92.7803 -80.1595 8.02871 0.226282 54.3061 -3.32128 2.84001 26.2291 0.623737 -8.02987 173.574 41.1148 103.438 -51.3145 -14.7712 3.53857 71.4122 -6.3329 -2.81263 18.7808 2.65305 3.54088 -0.704059 8.27828 -91.7107 10.2797 -2.18479 -3.21097 -1.39301 -2.32395 -3.11179 -23.9019 -1.11948 -3.71845 -3.88929 -1.11949 -3.71847 90.3344 -26.4715 -107.484 32.5845 6.29686 23.6015 -27.1706 -33.8166 -50.8524 -24.2384 0.041158 -18.5231 -90.4369 -47.2308 77.3932 5.58457 18.6824 -35.1269 46.3667 5.17743 -79.0988 14.5849 -1.16389 -11.508 32.1495 12.4764 3.38387 -14.8487 10.7015 -1.67768 
14.8233 90.7629 -204.587 -67.8482 -78.0956 -57.1108 -163.908 21.1851 94.333 -92.7938 3.48063 2.56458 57.1118 -0.634732 6.09967 23.9023 -0.340689 -8.3227 172.805 36.683 105.7 -56.4946 -14.6245 3.50108 76.7824 -10.8122 -4.52229 21.8213 1.51437 4.55744 -0.360113 8.40509 -91.9489 10.0222 -1.6041 -3.73597 -1.6529 -1.76687 -3.66191 -24.146 -0.408168 -4.04483 -4.13334 -0.408157 -4.04484 89.798 -29.0516 -107.533 31.9521 12.4147 11.2166 -26.758 -34.1772 -51.6065 -27.5198 -0.333896 -14.6999 -91.6935 -53.3784 76.9952 1.03151 20.1084 -26.5676 47.1161 7.02469 -78.3248 14.5925 -0.995572 -10.4329 30.5724 12.3802 5.06156 -14.4102 10.0755 -2.47037 
14.3488 90.1694 -196.861 -74.8342 -78.4221 -63.2055 -167.06 32.694 95.1082 -99.1267 0.291597 4.04326 62.8685 3.30823 4.3161 18.3766 -2.3102 -9.97254 173.306 30.2739 105.655 -58.9794 -13.3028 3.20465 82.3749 -14.7217 -4.13407 23.7357 1.02658 4.0232 -0.0702491 8.44879 -91.9123 9.94419 -1.00843 -3.71097 -1.73152 -1.17067 -3.66309 -24.2241 0.152572 -3.84234 -4.21145 0.152577 -3.84234 89.2743 -30.5592 -107.971 34.9654 14.7481 -1.27457 -23.479 -27.6961 -51.9202 -28.7106 0.573642 -16.6312 -91.2938 -55.466 78.0235 -9.02188 18.9176 -9.66426 48.653 3.44042 -81.1771 14.6939 -1.43667 -13.3484 29.6595 11.253 4.68604 -14.5727 9.11187 -1.68524 
